<svg width="14" height="24" viewBox="0 0 14 24" fill="none" xmlns="http://www.w3.org/2000/svg">
<path d="M6.75 19.5C6.33 19.5 6 19.17 6 18.75V5.25C6 4.83 6.33 4.5 6.75 4.5C7.17 4.5 7.5 4.83 7.5 5.25V18.75C7.5 19.17 7.17 19.5 6.75 19.5Z" fill="#2CB859"/>
<path d="M6.75 21C6.65164 21.0012 6.55411 20.9818 6.46369 20.9431C6.37328 20.9043 6.29197 20.8471 6.225 20.775L0.975 15.525C0.675 15.225 0.675 14.76 0.975 14.46C1.275 14.16 1.74 14.16 2.04 14.46L6.765 19.185L11.49 14.46C11.79 14.16 12.255 14.16 12.555 14.46C12.855 14.76 12.855 15.225 12.555 15.525L7.305 20.775C7.155 20.925 6.96 21 6.78 21H6.75Z" fill="#2CB859"/>
</svg>
